<svg xmlns="http://www.w3.org/2000/svg" viewBox="0 0 32 32" width="32" height="32" fill="none">
  <rect width="32" height="32" rx="7.5" fill="#2F5D4A"/>
  <g transform="translate(4.6 4.6) scale(0.71)"><path d="M28.37 16.40 C28.40 16.77 28.40 17.14 28.39 17.51 C28.37 17.88 28.34 18.26 28.28 18.62 C28.23 18.99 28.15 19.36 28.06 19.72 C27.96 20.09 27.85 20.45 27.71 20.80 C27.58 21.15 27.42 21.49 27.25 21.83 C27.08 22.16 26.88 22.49 26.68 22.80 C26.47 23.11 26.24 23.41 26.00 23.70 C25.75 23.99 25.49 24.26 25.22 24.52 C24.95 24.78 24.66 25.03 24.37 25.25 C24.07 25.48 23.76 25.70 23.44 25.89 C23.12 26.09 22.79 26.27 22.46 26.43 C22.13 26.59 21.78 26.74 21.43 26.86 C21.09 26.99 20.73 27.10 20.38 27.20 C20.02 27.29 19.66 27.37 19.29 27.43 C18.93 27.50 18.57 27.54 18.20 27.57 C17.83 27.60 17.47 27.62 17.10 27.62 C16.73 27.62 16.37 27.61 16.00 27.58 C15.63 27.55 15.27 27.50 14.90 27.45 C14.54 27.39 14.18 27.31 13.82 27.23 C13.45 27.14 13.10 27.04 12.74 26.93 C12.38 26.81 12.03 26.68 11.68 26.54 C11.33 26.39 10.99 26.23 10.65 26.06 C10.30 25.89 9.97 25.70 9.64 25.49 C9.31 25.29 8.98 25.07 8.67 24.83 C8.35 24.60 8.04 24.35 7.74 24.08 C7.45 23.81 7.16 23.53 6.88 23.23 C6.60 22.93 6.34 22.61 6.09 22.28 C5.84 21.96 5.60 21.61 5.39 21.25 C5.17 20.89 4.97 20.52 4.79 20.13 C4.61 19.75 4.45 19.35 4.31 18.94 C4.17 18.54 4.05 18.12 3.96 17.69 C3.87 17.27 3.80 16.84 3.76 16.40 C3.72 15.96 3.70 15.52 3.71 15.08 C3.72 14.64 3.76 14.20 3.82 13.76 C3.88 13.32 3.97 12.88 4.09 12.45 C4.21 12.03 4.35 11.60 4.52 11.19 C4.69 10.78 4.89 10.38 5.11 9.99 C5.33 9.61 5.58 9.23 5.84 8.88 C6.10 8.52 6.39 8.18 6.70 7.86 C7.00 7.55 7.33 7.25 7.67 6.97 C8.01 6.69 8.36 6.43 8.73 6.20 C9.10 5.97 9.48 5.76 9.87 5.57 C10.25 5.39 10.65 5.22 11.05 5.09 C11.45 4.95 11.86 4.83 12.27 4.74 C12.68 4.64 13.09 4.57 13.50 4.53 C13.91 4.48 14.32 4.45 14.72 4.44 C15.13 4.44 15.53 4.45 15.93 4.48 C16.32 4.51 16.72 4.57 17.10 4.63 C17.48 4.70 17.86 4.79 18.23 4.88 C18.60 4.98 18.97 5.10 19.32 5.22 C19.68 5.35 20.02 5.49 20.36 5.65 C20.70 5.80 21.03 5.96 21.35 6.14 C21.67 6.31 21.98 6.50 22.29 6.70 C22.59 6.89 22.88 7.10 23.17 7.32 C23.45 7.53 23.73 7.76 24.00 8.00 C24.26 8.23 24.52 8.48 24.77 8.73 C25.02 8.98 25.26 9.25 25.49 9.52 C25.72 9.79 25.93 10.07 26.14 10.36 C26.35 10.65 26.54 10.95 26.73 11.25 C26.91 11.56 27.08 11.88 27.24 12.20 C27.39 12.52 27.54 12.86 27.67 13.19 C27.79 13.53 27.91 13.88 28.00 14.23 C28.10 14.58 28.18 14.94 28.24 15.30 C28.30 15.66 28.35 16.03 28.37 16.40 Z" fill="none" stroke="#F3F6F0" stroke-width="3"/><path d="M26.78 15.20 C26.80 15.42 26.80 15.65 26.79 15.88 C26.79 16.11 26.77 16.33 26.73 16.56 C26.70 16.78 26.65 17.01 26.60 17.23 C26.54 17.45 26.47 17.67 26.38 17.88 C26.30 18.10 26.20 18.31 26.09 18.51 C25.98 18.71 25.86 18.91 25.73 19.10 C25.60 19.29 25.46 19.47 25.31 19.64 C25.16 19.81 25.00 19.98 24.83 20.13 C24.66 20.28 24.48 20.43 24.30 20.56 C24.12 20.70 23.93 20.82 23.73 20.94 C23.54 21.05 23.34 21.16 23.13 21.25 C22.93 21.34 22.72 21.43 22.51 21.50 C22.30 21.58 22.09 21.64 21.87 21.69 C21.65 21.75 21.44 21.79 21.22 21.83 C21.00 21.86 20.78 21.89 20.56 21.91 C20.34 21.93 20.12 21.94 19.90 21.94 C19.68 21.94 19.46 21.93 19.24 21.92 C19.02 21.90 18.80 21.88 18.58 21.85 C18.36 21.82 18.14 21.78 17.92 21.74 C17.70 21.69 17.48 21.63 17.26 21.57 C17.04 21.51 16.82 21.44 16.61 21.36 C16.39 21.28 16.18 21.19 15.96 21.09 C15.75 20.99 15.54 20.89 15.33 20.77 C15.12 20.65 14.91 20.53 14.71 20.39 C14.51 20.25 14.31 20.10 14.12 19.95 C13.93 19.79 13.74 19.62 13.56 19.44 C13.38 19.26 13.20 19.07 13.04 18.87 C12.87 18.67 12.72 18.46 12.57 18.24 C12.43 18.01 12.29 17.78 12.17 17.54 C12.05 17.31 11.94 17.06 11.85 16.80 C11.75 16.55 11.67 16.28 11.61 16.02 C11.55 15.75 11.50 15.48 11.47 15.20 C11.44 14.92 11.42 14.64 11.43 14.37 C11.43 14.09 11.45 13.81 11.49 13.53 C11.53 13.25 11.59 12.97 11.67 12.70 C11.74 12.43 11.84 12.16 11.95 11.91 C12.06 11.65 12.19 11.39 12.33 11.15 C12.47 10.91 12.63 10.68 12.80 10.46 C12.98 10.24 13.16 10.03 13.36 9.83 C13.56 9.64 13.77 9.46 13.99 9.29 C14.21 9.12 14.44 8.97 14.67 8.83 C14.91 8.69 15.15 8.57 15.40 8.46 C15.64 8.35 15.90 8.26 16.15 8.19 C16.40 8.11 16.66 8.05 16.92 8.00 C17.17 7.95 17.43 7.92 17.69 7.90 C17.94 7.88 18.19 7.87 18.44 7.88 C18.69 7.88 18.94 7.90 19.18 7.93 C19.43 7.96 19.67 8.00 19.90 8.05 C20.13 8.10 20.36 8.16 20.59 8.23 C20.81 8.29 21.03 8.37 21.24 8.45 C21.46 8.53 21.66 8.62 21.87 8.72 C22.07 8.82 22.27 8.92 22.46 9.03 C22.65 9.14 22.84 9.25 23.02 9.37 C23.20 9.49 23.38 9.61 23.55 9.74 C23.72 9.87 23.89 10.01 24.05 10.15 C24.21 10.29 24.37 10.43 24.52 10.58 C24.67 10.73 24.82 10.89 24.96 11.05 C25.10 11.21 25.23 11.38 25.36 11.55 C25.49 11.72 25.61 11.90 25.73 12.09 C25.84 12.27 25.95 12.46 26.05 12.65 C26.15 12.85 26.24 13.05 26.32 13.25 C26.40 13.46 26.48 13.67 26.54 13.88 C26.60 14.09 26.65 14.31 26.69 14.53 C26.73 14.75 26.76 14.98 26.78 15.20 Z" fill="none" stroke="#F3F6F0" stroke-width="3"/><circle cx="7.7" cy="16.4" r="2.58" fill="#A7C049"/></g>
</svg>
